<svg width="17" height="13" viewBox="0 0 17 13" fill="none" xmlns="http://www.w3.org/2000/svg">
<path d="M8.78722 12.1666H3.80784C2.98763 12.1666 2.57752 12.1666 2.26424 12.0122C1.98868 11.8764 1.76463 11.6597 1.62422 11.3931C1.4646 11.0901 1.4646 10.6934 1.4646 9.89998V3.09998C1.4646 2.30657 1.4646 1.90987 1.62422 1.60683C1.76463 1.34026 1.98868 1.12354 2.26424 0.98772C2.57752 0.833313 2.98763 0.833313 3.80784 0.833313H4.10074C5.74116 0.833313 6.56137 0.833313 7.18793 1.14213C7.73906 1.41377 8.18715 1.84721 8.46797 2.38034C8.78722 2.98642 8.78722 3.77983 8.78722 5.36665M8.78722 12.1666V5.36665M8.78722 12.1666H13.7666C14.5868 12.1666 14.9969 12.1666 15.3102 12.0122C15.5858 11.8764 15.8098 11.6597 15.9502 11.3931C16.1098 11.0901 16.1098 10.6934 16.1098 9.89998V3.09998C16.1098 2.30657 16.1098 1.90987 15.9502 1.60683C15.8098 1.34026 15.5858 1.12354 15.3102 0.98772C14.9969 0.833313 14.5868 0.833313 13.7666 0.833313H13.4737C11.8333 0.833313 11.0131 0.833313 10.3865 1.14213C9.83537 1.41377 9.38728 1.84721 9.10646 2.38034C8.78722 2.98642 8.78722 3.77983 8.78722 5.36665" stroke="black" stroke-width="1.5" stroke-linecap="round" stroke-linejoin="round"/>
</svg>
