<svg width="13" height="17" viewBox="0 0 13 17" fill="none" xmlns="http://www.w3.org/2000/svg">
<path d="M10.1055 1.99748C9.45408 1.46168 8.69122 1.07808 7.87263 0.874658C7.05404 0.671236 6.20036 0.653124 5.37387 0.821644C4.27339 1.04393 3.26374 1.58811 2.47302 2.38513C1.68231 3.18216 1.14616 4.1961 0.932621 5.29831C0.77668 6.12474 0.805017 6.97539 1.01561 7.78961C1.22621 8.60383 1.61387 9.36155 2.15095 10.0087C2.6494 10.5712 2.9351 11.2905 2.95846 12.0416V14.1666C2.95846 14.7302 3.18234 15.2707 3.58085 15.6692C3.97937 16.0678 4.51987 16.2916 5.08346 16.2916H7.91679C8.48037 16.2916 9.02088 16.0678 9.41939 15.6692C9.81791 15.2707 10.0418 14.7302 10.0418 14.1666V12.1762C10.0656 11.3469 10.3703 10.5502 10.906 9.91664C11.8446 8.75553 12.287 7.27089 12.1372 5.78538C11.9873 4.29987 11.2572 2.93353 10.1055 1.98331V1.99748ZM8.62512 14.1666C8.62512 14.3545 8.55049 14.5347 8.41766 14.6675C8.28482 14.8003 8.10465 14.875 7.91679 14.875H5.08346C4.89559 14.875 4.71543 14.8003 4.58259 14.6675C4.44975 14.5347 4.37512 14.3545 4.37512 14.1666V13.4583H8.62512V14.1666ZM9.80804 9.03831C9.09581 9.88307 8.68028 10.9381 8.62512 12.0416H7.20846V9.91664C7.20846 9.72878 7.13383 9.54861 7.00099 9.41578C6.86815 9.28294 6.68798 9.20831 6.50012 9.20831C6.31226 9.20831 6.13209 9.28294 5.99925 9.41578C5.86642 9.54861 5.79179 9.72878 5.79179 9.91664V12.0416H4.37512C4.35643 10.9565 3.95504 9.91293 3.24179 9.09498C2.7712 8.53114 2.45475 7.85498 2.3233 7.13243C2.19185 6.40988 2.24987 5.66559 2.49173 4.97214C2.73358 4.2787 3.151 3.65975 3.70328 3.17567C4.25557 2.69158 4.92388 2.35887 5.64304 2.20998C6.2611 2.08272 6.89974 2.09469 7.51259 2.24502C8.12545 2.39535 8.69714 2.68026 9.18616 3.07907C9.67517 3.47788 10.0692 3.98058 10.3398 4.55068C10.6103 5.12077 10.7505 5.74395 10.7501 6.37498C10.7554 7.3453 10.4222 8.2871 9.80804 9.03831V9.03831Z" fill="black"/>
</svg>
