<svg width="17" height="16" viewBox="0 0 17 16" fill="none" xmlns="http://www.w3.org/2000/svg">
<path d="M6.37508 14.875V9.63333C6.37508 9.23663 6.37508 9.03828 6.45229 8.88676C6.5202 8.75348 6.62856 8.64511 6.76184 8.5772C6.91336 8.5 7.11171 8.5 7.50842 8.5H9.49175C9.88846 8.5 10.0868 8.5 10.2383 8.5772C10.3716 8.64511 10.48 8.75348 10.5479 8.88676C10.6251 9.03828 10.6251 9.23663 10.6251 9.63333V14.875M1.41675 6.72917L7.82008 1.92667C8.06393 1.74378 8.18586 1.65234 8.31977 1.61709C8.43797 1.58597 8.5622 1.58597 8.6804 1.61709C8.81431 1.65234 8.93623 1.74378 9.18008 1.92667L15.5834 6.72917M2.83342 5.66667V12.6083C2.83342 13.4017 2.83342 13.7984 2.98783 14.1015C3.12365 14.368 3.34037 14.5848 3.60693 14.7206C3.90997 14.875 4.30668 14.875 5.10008 14.875H11.9001C12.6935 14.875 13.0902 14.875 13.3932 14.7206C13.6598 14.5848 13.8765 14.368 14.0123 14.1015C14.1668 13.7984 14.1668 13.4017 14.1668 12.6083V5.66667L9.86008 2.43667C9.37238 2.07089 9.12854 1.888 8.86072 1.81751C8.62432 1.75528 8.37585 1.75528 8.13945 1.81751C7.87163 1.888 7.62778 2.07089 7.14008 2.43667L2.83342 5.66667Z" stroke="#000" stroke-width="1.5" stroke-linecap="round" stroke-linejoin="round"/>
</svg>
